<?xml version="1.0" encoding="UTF-8" standalone="no"?>
<svg
   xmlns:osb="http://www.openswatchbook.org/uri/2009/osb"
   xmlns:dc="http://purl.org/dc/elements/1.1/"
   xmlns:cc="http://creativecommons.org/ns#"
   xmlns:rdf="http://www.w3.org/1999/02/22-rdf-syntax-ns#"
   xmlns:svg="http://www.w3.org/2000/svg"
   xmlns="http://www.w3.org/2000/svg"
   xmlns:sodipodi="http://sodipodi.sourceforge.net/DTD/sodipodi-0.dtd"
   xmlns:inkscape="http://www.inkscape.org/namespaces/inkscape"
   width="5.7in"
   height="5.68889in"
   viewBox="0 0 513 512"
   id="svg3286"
   version="1.1"
   inkscape:version="0.48.4 r9939"
   sodipodi:docname="erp-icon.svg">
  <metadata
     id="metadata3293">
    <rdf:RDF>
      <cc:Work
         rdf:about="">
        <dc:format>image/svg+xml</dc:format>
        <dc:type
           rdf:resource="http://purl.org/dc/dcmitype/StillImage" />
        <dc:title></dc:title>
      </cc:Work>
    </rdf:RDF>
  </metadata>
  <defs
     id="defs3291">
    <linearGradient
       id="linearGradient6959"
       osb:paint="solid">
      <stop
         style="stop-color:#747fff;stop-opacity:1;"
         offset="0"
         id="stop6961" />
    </linearGradient>
    <marker
       inkscape:stockid="Arrow1Lstart"
       orient="auto"
       refY="0.0"
       refX="0.0"
       id="Arrow1Lstart"
       style="overflow:visible">
      <path
         id="path4157"
         d="M 0.0,0.0 L 5.0,-5.0 L -12.5,0.0 L 5.0,5.0 L 0.0,0.0 z "
         style="fill-rule:evenodd;stroke:#000000;stroke-width:1.0pt"
         transform="scale(0.8) translate(12.5,0)" />
    </marker>
    <filter
       id="filter3297"
       inkscape:label="Colorize"
       inkscape:menu="Color"
       inkscape:menu-tooltip="Blend image or object with a flood color and set lightness and contrast"
       x="0"
       y="0"
       width="1"
       height="1"
       color-interpolation-filters="sRGB">
      <feColorMatrix
         id="feColorMatrix3299"
         values="1"
         in="SourceGraphic"
         type="saturate"
         result="result2" />
      <feFlood
         id="feFlood3301"
         flood-color="rgb(254,102,0)"
         flood-opacity="1"
         result="result1" />
      <feBlend
         id="feBlend3303"
         in2="result2"
         mode="multiply"
         in="result1"
         result="result3" />
      <feComposite
         id="feComposite3305"
         in2="SourceGraphic"
         operator="in"
         k2="1"
         result="result4" />
    </filter>
  </defs>
  <sodipodi:namedview
     pagecolor="#ffffff"
     bordercolor="#666666"
     borderopacity="1"
     objecttolerance="10"
     gridtolerance="10"
     guidetolerance="10"
     inkscape:pageopacity="0"
     inkscape:pageshadow="2"
     inkscape:window-width="1366"
     inkscape:window-height="667"
     id="namedview3289"
     showgrid="false"
     inkscape:zoom="0.57504873"
     inkscape:cx="398.1652"
     inkscape:cy="118.47741"
     inkscape:window-x="0"
     inkscape:window-y="28"
     inkscape:window-maximized="1"
     inkscape:current-layer="svg3286"
     inkscape:snap-midpoints="true"
     inkscape:snap-smooth-nodes="true"
     inkscape:object-nodes="true"
     inkscape:object-paths="true"
     inkscape:snap-bbox="true"
     inkscape:snap-page="true" />
  <path
     style="fill:#8d5fd3;fill-opacity:1;stroke:#747fff;stroke-width:0;stroke-linecap:round;stroke-linejoin:round;stroke-miterlimit:4;stroke-opacity:0.04608298;stroke-dasharray:none;marker-start:none;marker-mid:none;marker-end:none"
     d="M 256.0625 0.6875 L 1.75 0.71875 C 1.6586016 171.33217 1.5702971 341.94904 1.625 512.5625 L 256.875 512.1875 L 512.15625 511.8125 L 513 257.375 C 513.55424 88.615604 513.26466 2.5461472 512.15625 1.8125 C 511.23708 1.2041382 396.00552 0.6645555 256.0625 0.6875 z M 172.375 160.03125 C 184.58841 160.03146 196.05715 161.65646 206.8125 164.9375 C 217.65869 168.1278 227.83316 172.96634 237.3125 179.4375 L 237.3125 208.5625 C 228.01545 199.90381 218.07276 193.44028 207.5 189.15625 C 197.01809 184.87258 185.84883 182.71894 174 182.71875 C 150.66657 182.71894 132.80201 189.87778 120.40625 204.1875 C 108.01037 218.4064 101.81246 239.02096 101.8125 266 C 101.81246 292.8881 108.01037 313.47141 120.40625 327.78125 C 132.80201 342.00003 150.66657 349.12502 174 349.125 C 185.84883 349.12502 197.01809 346.97138 207.5 342.6875 C 218.07276 338.40368 228.01545 331.94014 237.3125 323.28125 L 237.3125 352.125 C 227.65087 358.68751 217.40869 363.59375 206.5625 366.875 C 195.80715 370.15625 184.40612 371.8125 172.375 371.8125 C 141.47648 371.8125 117.14838 362.36719 99.375 343.5 C 81.601538 324.54171 72.718734 298.72142 72.71875 266 C 72.718734 233.18763 81.601538 207.3361 99.375 188.46875 C 117.14838 169.51062 141.47648 160.03146 172.375 160.03125 z M 280.25 163.71875 L 336.96875 163.71875 C 376.52592 163.71895 405.55974 171.97155 424.0625 188.46875 C 442.56491 204.87516 451.8123 230.56264 451.8125 265.5625 C 451.8123 300.74486 442.53106 326.5964 423.9375 343.09375 C 405.3436 359.59115 376.34363 367.84375 336.96875 367.84375 L 280.25 367.84375 L 280.25 163.71875 z M 307.875 186.40625 L 307.875 345.15625 L 341.21875 345.15625 C 369.3827 345.15627 389.99726 338.76045 403.03125 326 C 416.15609 313.23964 422.71858 293.08862 422.71875 265.5625 C 422.71858 238.21888 416.15609 218.23192 403.03125 205.5625 C 389.99726 192.80226 369.3827 186.40643 341.21875 186.40625 L 307.875 186.40625 z "
     transform="translate(0,-6.1035156e-5)"
     id="path4099" />
  <rect
     style="fill:#eeaaff;fill-opacity:0;stroke:#747fff;stroke-width:0;stroke-linecap:round;stroke-linejoin:round;stroke-miterlimit:4;stroke-opacity:0.04608298;stroke-dasharray:none"
     id="rect6996"
     width="510.57932"
     height="510.54071"
     x="1.5851355"
     y="1.2687639" />
  <rect
     style="fill:#373e48;fill-opacity:0;stroke:#747fff;stroke-width:0;stroke-linecap:round;stroke-linejoin:round;stroke-miterlimit:4;stroke-opacity:0.04608298;stroke-dasharray:none"
     id="rect7016"
     width="511.05341"
     height="512.71765"
     x="1.1110617"
     y="-0.9081741" />
</svg>
